HIERARCHY
ROOT Hips
{
	OFFSET 0.000000 0.000000 0.000000
	CHANNELS 6 Xposition Yposition Zposition Zrotation Yrotation Xrotation 
	JOINT LowerBack
	{
		OFFSET 0.000000 0.000000 0.000000
		CHANNELS 3 Zrotation Yrotation Xrotation
		JOINT Spine
		{
			OFFSET 0.028270 2.035590 -0.193380
			CHANNELS 3 Zrotation Yrotation Xrotation
			JOINT Spine1
			{
				OFFSET 0.056720 2.048850 -0.042750
				CHANNELS 3 Zrotation Yrotation Xrotation
				JOINT Neck
				{
					OFFSET 0.000000 0.000000 0.000000
					CHANNELS 3 Zrotation Yrotation Xrotation
					JOINT Neck1
					{
						OFFSET -0.054170 1.746240 0.172020
						CHANNELS 3 Zrotation Yrotation Xrotation
						JOINT Head
						{
							OFFSET 0.104070 1.761360 -0.123970
							CHANNELS 3 Zrotation Yrotation Xrotation
							End Site
							{
								OFFSET 0.000000 0.000000 0.000000
							}
						}
					}
				}
				JOINT LeftShoulder
				{
					OFFSET 0.000000 0.000000 0.000000
					CHANNELS 3 Zrotation Yrotation Xrotation
					JOINT LeftArm
					{
						OFFSET 3.362410 1.200890 -0.311210
						CHANNELS 3 Zrotation Yrotation Xrotation
						JOINT LeftForeArm
						{
							OFFSET 4.983000 -0.000000 -0.000000
							CHANNELS 3 Zrotation Yrotation Xrotation
							JOINT LeftHand
							{
								OFFSET 3.483560 -0.000000 -0.000000
								CHANNELS 3 Zrotation Yrotation Xrotation
								JOINT LeftFingerBase
								{
									OFFSET 0.000000 0.000000 0.000000
									CHANNELS 3 Zrotation Yrotation Xrotation
									JOINT LeftHandIndex1
									{
										OFFSET 0.715260 -0.000000 -0.000000
										CHANNELS 3 Zrotation Yrotation Xrotation
										End Site
										{
											OFFSET 0.000000 0.000000 0.000000
										}
									}
								}
								JOINT LThumb
								{
									OFFSET 0.000000 0.000000 0.000000
									CHANNELS 3 Zrotation Yrotation Xrotation
									End Site
									{
										OFFSET 0.000000 0.000000 0.000000
									}
								}
							}
						}
					}
				}
				JOINT RightShoulder
				{
					OFFSET 0.000000 0.000000 0.000000
					CHANNELS 3 Zrotation Yrotation Xrotation
					JOINT RightArm
					{
						OFFSET -3.136600 1.374050 -0.404650
						CHANNELS 3 Zrotation Yrotation Xrotation
						JOINT RightForeArm
						{
							OFFSET -5.241900 -0.000000 -0.000000
							CHANNELS 3 Zrotation Yrotation Xrotation
							JOINT RightHand
							{
								OFFSET -3.444170 -0.000000 -0.000000
								CHANNELS 3 Zrotation Yrotation Xrotation
								JOINT RightFingerBase
								{
									OFFSET 0.000000 0.000000 0.000000
									CHANNELS 3 Zrotation Yrotation Xrotation
									JOINT RightHandIndex1
									{
										OFFSET -0.622530 -0.000000 -0.000000
										CHANNELS 3 Zrotation Yrotation Xrotation
										End Site
										{
											OFFSET 0.000000 0.000000 0.000000
										}
									}
								}
								JOINT RThumb
								{
									OFFSET 0.000000 0.000000 0.000000
									CHANNELS 3 Zrotation Yrotation Xrotation
									End Site
									{
										OFFSET 0.000000 0.000000 0.000000
									}
								}
							}
						}
					}
				}
			}
		}
	}
}
}
MOTION
Frames: 15
Frame Time: 0.008333
2.451300 16.892268 0.532364 -173.650759 -43.534887 -153.518148 4.427101 -7.030241 0.119083 1.033168 -7.263173 -2.732879 -4.800655 -7.370999 0.268086 19.225529 -14.906008 -6.160088 -0.735983 -0.071536 0.340481 0.000000 0.000000 0.000000 31.362364 -9.672774 4.081531 13.047517 -11.175082 -48.463465 -1.157046 -1.198885 -0.071474 11.614647 -5.103688 -0.609987 -0.571454 0.598406 -0.000000 0.000000 0.000000 0.000000 0.000000 0.000000 0.000000 13.265656 -15.841753 -3.108724 48.950695 54.107384 3.978048 -178.119814 58.334859 179.713160 -25.433276 13.502888 -3.350605 0.511963 -0.973070 0.000000 0.000000 0.000000 0.000000 0.000000 0.000000 0.000000 
2.448393 16.874367 0.524596 -173.491486 -43.289924 -153.563840 4.702462 -7.050409 0.120425 1.115086 -7.294429 -2.610546 -4.754431 -7.377042 0.691269 18.792081 -15.006286 -6.489608 -0.695585 -0.061820 0.238882 0.000000 0.000000 0.000000 31.515468 -7.283858 4.178703 13.814883 -16.564371 -53.419009 -0.665847 0.935551 -0.066882 12.368977 -9.035401 -1.109826 -0.565908 0.725169 0.000000 0.000000 0.000000 0.000000 0.000000 0.000000 0.000000 12.727967 -15.907508 -3.385916 49.474515 54.352818 4.319748 -178.046814 58.211772 179.715785 -25.146034 13.711615 -3.359415 0.498433 -0.974040 -0.000002 0.000000 0.000000 0.000000 0.000000 0.000000 0.000000 
2.447457 16.857431 0.511215 -173.386187 -43.033785 -153.538436 4.823004 -7.018101 0.061488 1.146946 -7.267838 -2.503756 -4.785759 -7.322334 1.072457 18.506095 -15.112883 -6.789765 -0.672718 -0.054077 0.147930 0.000000 0.000000 0.000000 32.085275 -5.286729 4.243104 14.686971 -21.650277 -58.013762 -0.272601 3.311902 -0.056093 12.450901 -14.010081 -1.704594 -0.535150 0.877698 -0.000000 0.000000 0.000000 0.000000 0.000000 0.000000 0.000000 12.446825 -15.971388 -3.591495 49.602825 54.512655 4.304237 -177.998100 58.007201 179.718058 -24.919076 13.862198 -3.362495 0.489629 -0.974973 -0.000000 0.000000 0.000000 0.000000 0.000000 0.000000 0.000000 
2.449343 16.842099 0.493373 -173.345106 -42.776871 -153.476865 4.838901 -6.957623 -0.117017 1.151255 -7.212667 -2.441254 -4.799628 -7.247338 1.354405 18.114491 -15.161395 -6.908403 -0.737045 -0.056162 0.111113 0.000000 0.000000 0.000000 33.109191 -4.302725 4.138681 11.689586 -23.980498 -57.449039 -0.025842 -2.037679 -0.072878 11.898822 -14.171048 -1.648435 -0.474595 0.935168 -0.000000 0.000000 0.000000 0.000000 0.000000 0.000000 0.000000 12.182393 -15.902272 -3.659396 49.502583 54.557591 4.081534 -178.010816 57.810596 179.719143 -24.741995 13.956355 -3.360974 0.488614 -0.980651 0.000000 0.000000 0.000000 0.000000 0.000000 0.000000 0.000000 
2.454348 16.828603 0.472865 -173.356988 -42.531970 -153.382643 4.802305 -6.871384 -0.343598 1.131098 -7.132043 -2.441907 -4.852496 -7.156619 1.415656 17.700156 -15.132634 -6.812190 -0.836086 -0.065020 0.138245 0.000000 0.000000 0.000000 33.812886 -4.324136 3.926102 8.534559 -24.865034 -54.223832 0.069832 -8.397649 -0.088230 11.490115 -13.590648 -1.528317 -0.424415 0.960592 -0.000000 0.000000 0.000000 0.000000 0.000000 0.000000 0.000000 11.908207 -15.743281 -3.611251 49.379601 54.409634 3.809507 -178.067977 57.630322 179.719648 -24.601157 14.023357 -3.358922 0.491833 -0.988532 -0.000000 0.000000 0.000000 0.000000 0.000000 0.000000 0.000000 
2.462224 16.817252 0.451269 -173.406322 -42.315425 -153.270467 4.744517 -6.766892 -0.588039 1.094160 -7.034546 -2.484468 -4.941499 -7.054431 1.327977 17.291953 -15.054450 -6.571338 -0.948051 -0.077543 0.207986 0.000000 0.000000 0.000000 34.094112 -4.941107 3.680478 5.892767 -24.863637 -51.213934 0.148411 -14.788494 -0.101040 11.207419 -13.070412 -1.433794 -0.376953 0.975409 -0.000000 0.000000 0.000000 0.000000 0.000000 0.000000 0.000000 11.628611 -15.533682 -3.489420 49.278927 54.155975 3.520113 -178.149346 57.480323 179.719629 -24.503824 14.066384 -3.357856 0.497526 -0.997143 -0.000000 0.000000 0.000000 0.000000 0.000000 0.000000 0.000000 
2.472494 16.808275 0.430189 -173.474823 -42.141553 -153.154629 4.685315 -6.655410 -0.819467 1.051517 -6.930854 -2.545796 -5.042274 -6.948425 1.167262 16.909172 -14.960422 -6.267592 -1.056311 -0.090843 0.295772 0.000000 0.000000 0.000000 34.016352 -5.703161 3.416742 3.830147 -24.672769 -49.395341 0.250325 -20.716278 -0.111634 11.041741 -12.828046 -1.384242 -0.332461 0.986760 -0.000000 0.000000 0.000000 0.000000 0.000000 0.000000 0.000000 11.347022 -15.310610 -3.336934 49.210681 53.896859 3.225587 -178.234739 57.373555 179.719044 -24.456566 14.088809 -3.358993 0.504115 -1.005328 -0.000000 0.000000 0.000000 0.000000 0.000000 0.000000 0.000000 
2.484709 16.801675 0.410795 -173.553638 -42.017215 -153.044016 4.643547 -6.548499 -1.020354 1.012436 -6.832258 -2.614215 -5.134988 -6.849134 0.969838 16.543989 -14.860870 -5.944102 -1.152210 -0.103445 0.388617 0.000000 0.000000 0.000000 33.689103 -6.390654 3.124190 2.089486 -24.590203 -48.602110 0.377564 -26.183890 -0.122603 11.111677 -12.703181 -1.376404 -0.295600 0.993897 -0.000000 0.000000 0.000000 0.000000 0.000000 0.000000 0.000000 11.041141 -15.086076 -3.179602 49.206515 53.687112 2.959179 -178.312022 57.325107 179.717878 -24.456485 14.100027 -3.363938 0.510369 -1.012638 -0.000000 0.000000 0.000000 0.000000 0.000000 0.000000 0.000000 
2.498116 16.797311 0.393623 -173.639982 -41.944719 -152.941503 4.632165 -6.454812 -1.187000 0.982170 -6.747522 -2.685884 -5.211329 -6.765271 0.748149 16.181105 -14.750487 -5.616795 -1.233947 -0.114930 0.481780 0.000000 0.000000 0.000000 33.199456 -6.931594 2.790963 0.418447 -24.672966 -48.490182 0.521334 -31.371933 -0.136417 11.529503 -12.509166 -1.403703 -0.268995 0.995815 -0.000000 0.000000 0.000000 0.000000 0.000000 0.000000 0.000000 10.692367 -14.856877 -3.028612 49.288013 53.546485 2.749822 -178.376119 57.343014 179.716155 -24.497512 14.109160 -3.373699 0.515644 -1.019024 -0.000000 0.000000 0.000000 0.000000 0.000000 0.000000 0.000000 
2.511834 16.794961 0.378816 -173.732663 -41.922988 -152.847584 4.657251 -6.379235 -1.323413 0.963114 -6.681737 -2.760031 -5.269475 -6.701889 0.506977 15.807970 -14.618600 -5.290927 -1.303873 -0.125395 0.573803 0.000000 0.000000 0.000000 32.600817 -7.304003 2.410856 -1.345455 -24.913410 -48.778613 0.666106 -36.463647 -0.154366 12.346017 -12.131704 -1.456832 -0.252794 0.992437 -0.000000 0.000000 0.000000 0.000000 0.000000 0.000000 0.000000 10.296767 -14.616076 -2.887783 49.450456 53.479728 2.607977 -178.425612 57.427073 179.713932 -24.573754 14.122210 -3.389073 0.519718 -1.024578 -0.000000 0.000000 0.000000 0.000000 0.000000 0.000000 0.000000 
2.525046 16.794339 0.366075 -173.832108 -41.947277 -152.761453 4.714583 -6.322139 -1.437918 0.954234 -6.635225 -2.837761 -5.312471 -6.659109 0.246101 15.419724 -14.451947 -4.963754 -1.366441 -0.135226 0.665682 0.000000 0.000000 0.000000 31.935183 -7.533169 1.985511 -3.301668 -25.259325 -49.240120 0.789521 -41.614588 -0.176577 13.552140 -11.526444 -1.521274 -0.245860 0.984224 -0.000000 0.000000 0.000000 0.000000 0.000000 0.000000 0.000000 9.864450 -14.355156 -2.755586 49.669464 53.473415 2.525288 -178.461898 57.566293 179.711288 -24.680048 14.141908 -3.409857 0.522761 -1.029480 -0.000000 0.000000 0.000000 0.000000 0.000000 0.000000 0.000000 
2.537120 16.795056 0.354892 -173.938916 -42.009378 -152.682097 4.795192 -6.279891 -1.538146 0.953721 -6.604052 -2.918660 -5.342432 -6.632533 -0.029029 15.015995 -14.245111 -4.636258 -1.426088 -0.144734 0.757295 0.000000 0.000000 0.000000 31.210749 -7.623139 1.525658 -5.445757 -25.709058 -49.713202 0.868055 -46.875109 -0.202087 15.079251 -10.719921 -1.579717 -0.246275 0.972133 -0.000000 0.000000 0.000000 0.000000 0.000000 0.000000 0.000000 9.412761 -14.075282 -2.631883 49.912090 53.518168 2.485775 -178.486459 57.745076 179.708315 -24.811657 14.169612 -3.435848 0.525018 -1.033883 -0.000000 0.000000 0.000000 0.000000 0.000000 0.000000 0.000000 
2.547867 16.796764 0.344620 -174.057313 -42.099882 -152.606472 4.884378 -6.246204 -1.633587 0.958091 -6.581465 -3.002356 -5.362176 -6.614762 -0.311632 14.601843 -13.995236 -4.308407 -1.486550 -0.154192 0.848845 0.000000 0.000000 0.000000 30.435293 -7.600283 1.050995 -7.737813 -26.242937 -50.070165 0.880397 -52.241979 -0.228853 16.786313 -9.776603 -1.613243 -0.251348 0.957348 -0.000000 0.000000 0.000000 0.000000 0.000000 0.000000 0.000000 8.962470 -13.779616 -2.516176 50.143933 53.597322 2.466683 -178.501303 57.943078 179.705120 -24.963273 14.203518 -3.465941 0.526818 -1.037901 -0.000000 0.000000 0.000000 0.000000 0.000000 0.000000 0.000000 
2.557191 16.798959 0.334787 -174.186614 -42.207468 -152.534921 4.967985 -6.213147 -1.730432 0.964165 -6.558989 -3.086550 -5.373186 -6.596585 -0.589740 14.183021 -13.708086 -3.984241 -1.549991 -0.163684 0.939265 0.000000 0.000000 0.000000 29.602082 -7.472266 0.584483 -10.090738 -26.876446 -50.226616 0.816120 -57.634198 -0.254498 18.507855 -8.800177 -1.613945 -0.258557 0.941575 -0.000000 0.000000 0.000000 0.000000 0.000000 0.000000 0.000000 8.530655 -13.478298 -2.410631 50.339790 53.700828 2.450348 -178.507763 58.142007 179.701816 -25.128221 14.242247 -3.499133 0.528351 -1.041614 -0.000000 0.000000 0.000000 0.000000 0.000000 0.000000 0.000000 
2.565408 16.801262 0.324928 -174.327409 -42.319213 -152.470804 5.034392 -6.172410 -1.829943 0.969397 -6.527709 -3.167512 -5.375764 -6.568447 -0.849453 13.765829 -13.396056 -3.669763 -1.617045 -0.173153 1.026857 0.000000 0.000000 0.000000 28.703697 -7.237892 0.146999 -12.408880 -27.641595 -50.134289 0.678903 -62.927159 -0.276804 20.071925 -7.906049 -1.587225 -0.265647 0.926862 -0.000000 0.000000 0.000000 0.000000 0.000000 0.000000 0.000000 8.129324 -13.185012 -2.318777 50.486796 53.823905 2.425558 -178.506822 58.325378 179.698513 -25.298626 14.284517 -3.534022 0.529713 -1.045094 -0.000000 0.000000 0.000000 0.000000 0.000000 0.000000 0.000000 
